<svg width="843" height="1285" viewBox="0 0 843 1285" fill="none" xmlns="http://www.w3.org/2000/svg">
<path d="M526.38 0L530.338 3.88217L534.296 13.5876L540.232 23.293L542.211 31.0574V56.2915L528.359 98.9955L506.592 178.58L492.74 229.048L486.803 260.106V331.926L494.718 370.748L506.592 403.746L522.423 434.804L546.169 473.625L571.894 508.565L599.599 545.446L631.261 592.032L658.965 640.559L680.733 692.968L694.585 737.613L704.479 786.14L708.437 817.198V881.254L704.479 914.252L692.606 962.779L676.775 1007.42L653.028 1055.95L627.303 1090.89L605.535 1116.13L567.937 1153.01L542.211 1172.42L508.571 1193.77L467.014 1215.12L411.606 1234.53L368.07 1244.24L328.493 1248.12H284.958L249.338 1244.24L203.824 1232.59L166.225 1217.06L138.521 1201.53L112.796 1182.12L87.0704 1156.89L71.2394 1135.54L49.4718 1108.36L31.662 1077.3L19.7887 1046.25V1040.42H23.7465L41.5563 1061.77L69.2606 1083.13L93.0071 1096.71L118.732 1106.42L144.458 1112.24L172.162 1116.13L164.247 1106.42L136.542 1085.07L116.754 1067.6L100.923 1054.01L73.2183 1026.84L51.4507 999.66L29.6831 964.72L15.831 935.604L3.95775 894.841L0 867.666V811.375L5.93662 770.612L17.8099 733.731L29.6831 702.674L51.4507 661.911L79.1549 623.089L96.9648 601.737L108.838 590.091L112.796 592.032L102.901 619.207L94.9859 650.264L93.0071 665.793V724.026L98.9437 760.906L108.838 791.964L128.627 832.727L146.437 856.02L170.183 883.195L191.951 902.606L217.676 922.017L257.254 949.192L284.958 970.544L304.747 988.014L320.578 1001.6L344.324 1026.84L364.113 1055.95L379.944 1087.01L383.901 1096.71H391.817L387.859 1077.3L368.07 1036.54L336.409 991.896L308.704 958.897L286.937 935.604L269.127 916.193L247.359 889.018L217.676 850.196L197.887 815.257L186.014 788.082L174.141 751.201L168.204 722.085L164.247 677.44V632.794L168.204 595.914L182.056 541.563L189.972 526.035L197.887 518.27L207.782 461.979L219.655 423.157L235.486 386.276L251.317 355.219L265.169 333.867L286.937 302.81L304.747 279.517L330.472 248.459L354.218 223.225L368.07 207.696L395.775 178.58L405.669 161.11L415.563 145.582L425.458 122.289L441.289 91.2311L455.141 67.9381L465.035 56.2915L474.93 48.5272L486.803 34.9396L502.634 25.2341L510.549 19.4109L520.444 21.352L524.401 1.94109L526.38 0Z" fill="#6329D0"/>
<path d="M526.38 0L530.338 3.88217L534.296 13.5876L540.232 23.293L542.211 31.0574V56.2915L528.359 98.9955L506.591 178.58L492.739 229.048L486.803 260.106V331.926L494.718 370.748L506.591 403.746L522.422 434.804L546.169 473.625L571.894 508.565L599.599 545.446L631.26 592.032L658.965 640.559L680.732 692.968L694.584 737.613L704.479 786.14L708.437 817.198V881.254L704.479 914.252L692.606 962.779L676.775 1007.42L653.028 1055.95L627.303 1090.89L605.535 1116.13L567.937 1153.01L542.211 1172.42L508.57 1193.77L467.014 1215.12L411.606 1234.53L368.07 1244.24L328.493 1248.12H284.958L249.338 1244.24L203.824 1232.59L166.225 1217.06L138.521 1201.53L112.796 1182.12L87.0703 1156.89L71.2393 1135.54L49.4717 1108.36L31.6618 1077.3L19.7886 1046.25V1040.42H23.7463L41.5562 1061.77L69.2604 1083.13L93.0069 1096.71L118.732 1106.42L144.458 1112.24L164.246 1114.18H189.972L219.655 1106.42L237.465 1094.77L247.359 1083.13L255.275 1073.42L253.296 1085.07L241.422 1100.6L221.634 1114.18L193.929 1121.95H152.373L122.69 1116.13L96.9646 1106.42L67.2815 1090.89L49.4717 1077.3L41.5562 1075.36L45.5139 1087.01L53.4294 1098.66L69.2604 1118.07L96.9646 1145.24L118.732 1158.83L150.394 1174.36L172.162 1182.12L193.929 1186H265.169L302.767 1178.24L334.429 1166.59L383.901 1141.36L393.796 1135.54H397.753V1131.65L419.521 1116.13L439.31 1098.66L451.183 1088.95L468.993 1067.6L490.76 1038.48L506.591 1011.31L524.401 972.485L536.275 931.722L542.211 896.782L544.19 875.43V854.078L540.232 813.316L532.317 780.317L518.465 743.437L502.634 712.379L482.845 681.322L463.056 656.088L439.31 628.912L421.5 609.501L399.732 582.326L372.028 547.387L354.218 518.27L338.387 485.272L328.493 448.391L326.514 436.745V349.396L318.598 366.866L306.725 411.511L300.789 446.45L298.81 467.802V498.859L304.746 539.622L316.62 580.385L334.429 617.266L360.155 658.029L385.88 691.027L403.69 714.32L409.627 727.908L423.479 749.26L427.437 760.906L437.331 778.376L435.352 782.258L411.606 745.378L383.901 708.497L370.049 691.027V687.145L364.113 685.204L350.26 665.793L348.282 671.616V675.498H344.324L342.345 679.381L334.429 675.498L322.556 659.97L316.62 650.264L300.789 628.912V623.089H296.831L279.021 592.032L265.169 559.033L253.296 520.211L249.338 493.036V448.391L255.275 407.628L269.127 359.101L279.021 335.808L292.873 310.574H296.831L300.789 298.927V293.104L298.81 287.281L320.577 260.106L338.387 240.695L352.239 225.166L370.049 205.755L393.796 180.521L401.711 168.875L409.627 155.287L417.542 139.758L425.458 122.289L441.289 91.2311L455.141 67.9381L465.035 56.2915L474.93 48.5272L486.803 34.9396L502.634 25.2341L510.549 19.4109L520.444 21.352L524.401 1.94109L526.38 0Z" fill="#C32E8F"/>
<path d="M326.514 347.455H328.493V436.745L336.408 471.684L346.302 498.859L366.091 535.74L393.795 572.621L421.5 605.619L439.31 626.971L461.077 650.264L484.824 681.322L504.612 712.379L520.443 743.436L534.295 780.317L542.211 813.316L546.169 854.078V875.43L540.232 923.958L528.359 966.662L510.549 1007.42L496.697 1032.66L476.908 1059.83L461.077 1079.24L445.246 1096.71L429.415 1110.3L401.711 1131.65L391.817 1133.6L387.859 1112.24V1104.48L395.774 1098.66L399.732 1079.24L401.711 1061.77V1019.07L393.795 980.249L385.88 956.956L370.049 923.958L344.324 887.077L326.514 865.725L294.852 832.727L279.021 813.316L253.295 778.376L231.528 737.613L213.718 689.086L197.887 626.971L193.929 599.796V578.444L197.887 576.503L205.802 595.914L219.655 644.441L235.486 679.381L247.359 700.733L267.148 727.908L282.979 745.378L304.746 772.553L322.556 791.964L336.408 807.492L356.197 830.785L372.028 852.137L391.817 881.254L415.563 923.958L429.415 956.956L441.288 995.778L443.267 1009.37L445.246 1044.31L459.098 1017.13L468.993 984.131L474.929 945.31V883.195L470.971 852.137L461.077 817.198L443.267 776.435L423.479 743.436L397.753 710.438L381.922 689.086L358.176 658.029L328.493 609.501L314.64 580.385L302.767 539.622L296.831 498.859V467.802L302.767 421.216L312.662 380.453L322.556 351.337L326.514 347.455Z" fill="black"/>
<path d="M526.38 0L530.338 3.88218L534.296 13.5876L540.232 23.2931L542.211 31.0574V56.2915L528.359 98.9955L506.591 178.58L492.739 229.048L486.803 260.106V331.926L494.718 370.748L506.591 403.746L522.422 434.804L546.169 473.625L571.894 508.565L599.598 545.446L631.26 592.032L658.965 640.559L680.732 692.968L684.69 704.615V716.261L676.774 706.556H674.796L684.69 724.026L682.711 729.849V725.967L674.796 724.026H660.943L631.26 733.731L625.324 739.554L621.366 749.26H617.408L609.493 733.731L607.514 725.967H603.556L595.641 710.438L587.725 698.792L575.852 677.44L569.915 661.911L552.105 634.736L544.19 621.148L532.317 605.619L522.422 597.855L504.612 576.503L482.845 551.269L461.077 524.094L441.289 498.86L419.521 463.92L403.69 428.98L393.796 394.041L389.838 370.748V335.808L395.774 296.986L405.669 260.106L409.627 244.577V230.989L383.901 217.402V213.52L374.007 209.637L377.965 201.873L389.838 190.227H393.796L395.774 182.462L413.584 159.169L423.479 149.464L441.289 126.171L453.162 116.465L465.035 102.878H468.993L472.951 95.1133L490.76 69.8792L502.634 50.4683L504.612 40.7628L516.486 27.1752L520.443 25.2341L524.401 1.94109L526.38 0Z" fill="#C7718A"/>
<path d="M108.838 590.091L112.796 592.032L102.901 619.207L94.9859 650.264L93.007 665.793V724.026L98.9437 760.906L108.838 791.964L128.627 832.726L146.437 856.02L170.183 883.195L191.951 902.606L217.676 922.017L257.254 949.192L284.958 970.544L304.746 988.013L320.577 1001.6L330.472 1011.31L328.493 1015.19L318.599 1009.37L302.768 1017.13L290.894 1026.84L281 1034.6L263.19 1032.66L255.275 1030.72L247.359 1019.07V1015.19L243.401 1017.13L253.296 1036.54L255.275 1044.31V1067.6L251.317 1079.24L243.401 1090.89L227.57 1104.48L207.782 1112.24L189.972 1116.13H172.162L164.246 1106.42L136.542 1085.07L116.754 1067.6L100.923 1054.01L73.2183 1026.84L51.4507 999.66L29.6831 964.72L15.831 935.604L3.95775 894.841L0 867.666V811.374L5.93662 770.612L17.8099 733.731L29.6831 702.674L51.4507 661.911L79.1549 623.089L96.9648 601.737L108.838 590.091Z" fill="#6C0FB8"/>
<path d="M672.817 496.918L688.648 508.565L714.373 535.74L734.162 560.974L751.972 584.267L773.739 619.207L791.549 650.264L809.359 689.086L829.148 747.319L839.042 795.846L843 832.726V908.429L835.084 958.897L823.211 1005.48L811.338 1036.54L791.549 1077.3L769.781 1112.24L749.993 1137.48L728.225 1160.77L694.584 1193.77L666.88 1215.12L637.197 1234.53L601.577 1253.94L550.126 1275.29L520.443 1285H312.662V1283.06L399.732 1277.24L435.352 1271.41L474.929 1259.77L514.507 1246.18L563.979 1222.89L597.619 1201.53L621.366 1184.06L641.155 1166.59L656.986 1153.01L684.69 1121.95L712.394 1081.19L728.225 1052.07L746.035 1005.48L755.929 964.72L759.887 931.722V873.489L755.929 844.373L748.014 815.257L732.183 780.317L712.394 749.26L714.373 733.731L716.352 720.143V669.675L710.415 621.148L702.5 586.208L690.626 547.386L672.817 502.741V496.918Z" fill="#C22E8F"/>
<path d="M686.669 914.252L696.563 916.193H702.5L700.521 931.722L690.627 968.602L676.774 1007.42L653.028 1055.95L627.303 1090.89L605.535 1116.13L567.936 1153.01L542.211 1172.42L508.57 1193.77L467.014 1215.12L411.605 1234.53L368.07 1244.24L328.493 1248.12H284.958L249.338 1244.24L203.824 1232.59L166.225 1217.06L138.521 1201.53L112.796 1182.12L87.0701 1156.89L77.1758 1143.3L79.1547 1139.42L96.9645 1154.95L128.626 1172.42L158.31 1184.06L191.95 1191.83L205.803 1193.77H261.211L296.831 1187.95L330.472 1178.24L362.134 1164.65L389.838 1149.12L413.584 1133.59L435.352 1116.13L455.141 1098.66L468.993 1083.13L492.739 1054.01L512.528 1024.89L536.274 980.249L554.084 935.604L558.042 920.075H562L569.915 929.781L595.641 931.722L617.408 935.604H625.324V941.427L629.281 943.368L627.303 968.602L633.239 955.015L641.155 927.84L647.091 923.957L668.859 922.016L686.669 914.252Z" fill="#6C0FB9"/>
<path d="M296.831 289.222L304.747 293.104L296.831 310.574H292.873L288.916 322.22L273.085 353.278L259.232 397.923L253.296 430.921L251.317 448.391V493.036L255.275 520.211L267.148 559.033L277.042 582.326L292.873 613.384L296.831 623.089H300.789L308.704 638.618L322.556 654.146L330.472 667.734L334.43 675.498L342.345 677.439L348.282 675.498L346.303 663.852L354.218 667.734L366.092 685.204L374.007 692.968L403.69 731.79L435.352 778.376L423.479 758.965L419.521 747.319L403.69 722.084L405.669 718.202L425.458 743.436L447.225 780.317L465.035 823.021L474.93 863.784L476.909 883.195V945.31L470.972 984.131L461.078 1017.13L447.225 1044.3L443.268 1046.25L441.289 1009.37L435.352 980.249L421.5 941.427L403.69 904.547L383.901 871.548L368.07 850.196L344.324 819.139L322.556 795.846L304.747 774.494L282.979 749.26L267.148 729.849L253.296 712.379L237.465 687.145L219.655 650.264L207.782 611.442L203.824 586.208L199.866 562.915V508.565L207.782 461.979L219.655 423.157L235.486 386.276L251.317 355.219L265.169 333.867L286.937 302.81L296.831 289.222Z" fill="#920EA9"/>
<path d="M358.176 491.095L366.091 500.801L383.901 527.976L397.753 545.446L417.542 566.798L431.394 582.326L443.268 595.914L449.204 599.796L465.035 597.855L476.908 586.209L490.76 578.444L492.739 562.915L502.634 570.68L518.465 590.091L528.359 601.737L538.253 611.443L546.169 621.148L558.042 642.5L575.852 669.675L581.789 685.204L583.768 692.968L587.725 694.909L601.577 716.261L603.556 725.967H607.514L617.408 745.378V749.26H621.366L625.324 735.672L641.155 727.908L660.944 722.085H674.796L682.711 724.026L670.838 700.733L676.775 702.674L682.711 712.379L686.669 710.438L698.542 755.083L706.458 799.728L708.437 817.198V881.254L704.479 914.252L696.563 920.076V916.193L682.711 918.134L668.859 923.958L647.091 925.899L643.134 927.84L631.26 966.662L627.303 970.544L625.324 964.721L627.303 943.369L625.324 935.604L615.43 937.545L595.641 933.663L569.915 931.722L562 923.958V920.076H558.042L556.063 935.604L536.275 984.131L508.57 1034.6L486.803 1063.72L465.035 1088.95L447.225 1108.36L431.394 1121.95L413.584 1135.54L385.88 1153.01L358.176 1168.53L330.472 1180.18L296.831 1189.89L261.211 1195.71H205.803L172.162 1189.89L136.542 1178.24L102.901 1160.77L83.1125 1145.24L67.2815 1131.65L45.5139 1102.54L29.6829 1071.48L19.7886 1046.25V1040.42H23.7463L41.5562 1061.77L69.2604 1083.13L93.0069 1096.71L118.732 1106.42L144.458 1112.24L164.246 1114.18H189.972L219.655 1106.42L237.465 1094.77L247.359 1083.13L255.275 1073.42L253.296 1085.07L241.422 1100.6L221.634 1114.18L193.929 1121.95H152.373L122.69 1116.13L96.9646 1106.42L67.2815 1090.89L49.4717 1077.3L41.5562 1075.36L45.5139 1087.01L53.4294 1098.66L69.2604 1118.07L96.9646 1145.24L118.732 1158.83L150.394 1174.36L172.162 1182.12L193.929 1186H265.169L302.767 1178.24L334.429 1166.59L383.901 1141.36L393.796 1135.54H397.753V1131.65L419.521 1116.13L439.31 1098.66L451.183 1088.95L468.993 1067.6L490.76 1038.48L506.591 1011.31L516.486 989.955L524.401 988.014V982.19H530.338L534.296 966.662L544.19 939.486L550.127 916.193L554.084 887.077V813.316L546.169 774.494L532.317 735.672L514.507 700.733L506.591 692.968L500.655 679.381L496.697 671.616H492.739L488.782 661.911H484.824L472.951 644.441L437.331 605.619L421.5 588.15L399.732 560.974L372.028 524.094L358.176 500.801V491.095Z" fill="#C65785"/>
<path d="M318.599 1007.42L330.472 1013.25L340.366 1022.95L358.176 1046.25L374.007 1073.42L379.944 1087.01L383.902 1102.54L389.838 1121.95V1139.42L354.219 1158.83L320.578 1174.36L286.937 1184.06L265.169 1187.95H193.93L166.226 1182.12L136.542 1170.48L104.88 1153.01L81.134 1131.65L71.2396 1121.95L57.3875 1106.42L45.5143 1090.89L39.5776 1079.24L41.5565 1073.42L51.4509 1077.3L77.1762 1094.77L110.817 1110.3L138.521 1118.07L152.373 1120.01H193.93L225.592 1110.3L243.402 1096.71L251.317 1085.07L253.296 1067.6V1044.3L243.402 1019.07V1013.25L251.317 1021.01L255.275 1030.72L281 1032.66L290.895 1024.89L304.747 1013.25L318.599 1007.42Z" fill="#5A69EE"/>
<path d="M686.669 914.252L696.563 916.193H702.5L700.521 931.722L690.627 968.602L676.775 1007.42L653.028 1055.95L627.303 1090.89L605.535 1116.13L583.768 1137.48L573.873 1135.54V1131.65L563.979 1127.77L558.042 1123.89V1120.01H554.084V1114.18L548.148 1112.24L538.254 1102.54L526.38 1096.71L508.57 1088.95L480.866 1085.07L472.951 1077.3L488.782 1059.83L508.57 1030.72L536.275 980.249L554.084 935.604L558.042 920.075H562L569.915 929.781L595.641 931.722L617.408 935.604H625.324V941.427L629.282 943.368L627.303 968.602L633.239 955.015L641.155 927.84L647.092 923.957L668.859 922.016L686.669 914.252Z" fill="#A6139F"/>
<path d="M526.38 0L530.338 3.88218L534.296 13.5876L540.232 23.2931L542.211 31.0574V56.2915L528.359 98.9955L506.591 178.58L492.739 229.048L486.803 260.106V331.926L494.718 370.748L506.591 403.746L522.422 434.804L546.169 473.625L571.894 508.565L599.598 545.446L631.26 592.032L658.965 640.559L680.732 692.968V696.85H676.775L655.007 654.147L607.514 580.385L589.704 555.151L563.979 520.211L540.232 487.213L516.486 450.332L498.676 419.275L482.845 378.512L474.929 339.69L472.951 322.221L470.972 254.282L467.014 252.341L463.056 244.577L449.204 236.813H437.331L425.458 244.577L409.627 279.517L401.711 308.633L399.732 318.338V368.807L407.648 409.569L419.521 442.568L441.289 481.39L461.077 508.565L474.929 526.035L492.739 545.446L510.549 566.798L530.338 592.032L552.105 623.089L550.127 626.971L532.317 605.619L522.422 597.855L504.612 576.503L482.845 551.269L461.077 524.094L441.289 498.86L419.521 463.92L403.69 428.98L393.796 394.041L389.838 370.748V335.808L395.774 296.986L405.669 260.106L409.627 244.577V230.989L383.901 217.402V213.52L374.007 209.637L377.965 201.873L389.838 190.227H393.796L395.774 182.462L413.584 159.169L423.479 149.464L441.289 126.171L453.162 116.465L465.035 102.878H468.993L472.951 95.1133L490.76 69.8792L502.634 50.4683L504.612 40.7628L516.486 27.1752L520.443 25.2341L524.401 1.94109L526.38 0Z" fill="#C27EC9"/>
<path d="M775.718 970.544H779.676V974.426L789.57 978.308L811.338 988.014L819.253 989.955L823.211 997.719L821.232 1011.31L809.359 1040.42L791.549 1077.3L769.781 1112.24L749.993 1137.48L728.225 1160.77L694.584 1193.77L666.88 1215.12L637.197 1234.53L601.577 1253.94L550.126 1275.29L520.443 1285H312.662V1283.06L399.732 1277.24L435.352 1271.41L474.929 1259.77L514.507 1246.18L540.232 1234.53L558.042 1228.71L567.936 1224.83L583.767 1220.94L605.535 1205.42L641.155 1180.18L664.901 1158.83L690.626 1131.65L712.394 1102.54L734.162 1067.6L753.95 1026.84L769.781 988.014L775.718 970.544Z" fill="#A6139F"/>
<path d="M277.042 586.208L281 592.032L296.83 619.207V623.089H300.788L308.704 638.618L322.556 654.146L330.471 667.734L334.429 675.498L342.345 677.439L348.281 675.498L346.302 663.852L354.218 667.734L366.091 685.204L374.007 692.968L403.69 731.79L435.352 778.376L423.478 758.965L419.521 747.319L403.69 722.085L405.669 718.202L425.457 743.436L447.225 780.317L465.035 823.021L472.95 852.137V867.666L467.014 861.843L451.183 832.727L439.309 828.844H425.457L399.732 834.668L389.838 836.609L379.943 834.668L370.049 824.962L350.26 803.61L332.45 782.258L306.725 755.083L288.915 733.731L281 724.026L277.042 708.497L269.126 704.615L257.253 687.145L251.316 669.675L253.295 652.205L255.274 644.441L263.19 636.677L273.084 621.148L275.063 615.325V592.032L277.042 586.208Z" fill="#A7149E"/>
<path d="M13.8521 755.083L25.7254 758.965L31.662 768.671V817.198L43.5352 867.666L55.4085 898.723L71.2394 927.84L91.0282 955.015L106.859 974.426L150.394 1017.13L166.225 1030.72L191.951 1054.01L205.803 1067.6L217.676 1087.01L223.613 1106.42L199.866 1114.18L189.972 1116.13H172.162L164.247 1106.42L136.542 1085.07L116.754 1067.6L100.923 1054.01L73.2183 1026.84L51.4507 999.66L29.6831 964.72L15.831 935.604L3.95775 894.841L0 867.666V811.374L5.93662 770.612L9.89437 757.024L13.8521 755.083Z" fill="#603CDB"/>
<path d="M108.838 590.091L112.796 592.032L102.901 619.207L94.9858 650.264L93.0069 665.793V724.026L98.9436 760.906L108.838 791.964L128.627 832.726L146.437 856.02L170.183 883.195L191.951 902.606L217.676 922.017L257.253 949.192L284.958 970.544L304.746 988.013L308.704 989.955V993.837L298.81 989.955V986.072L288.915 982.19L273.084 970.544L255.275 958.897L245.38 956.956L239.444 974.426L229.549 984.131L231.528 1001.6L217.676 989.955L174.141 955.015L146.437 931.722L118.732 904.547L96.9647 877.371L79.1548 848.255L65.3027 811.375L59.3661 784.199L57.3872 766.729V739.554L65.3027 685.204L77.1759 644.441L96.9647 607.56L100.922 597.855L108.838 590.091Z" fill="#C76F89"/>
<path d="M522.423 9.70544H524.402L522.423 25.2341L508.571 36.8807L504.613 48.5272L496.698 64.0559L480.867 87.3489L468.993 102.878L457.12 112.583L453.162 118.406H449.205L447.226 124.23L437.331 133.935L421.5 153.346L415.564 159.169L397.754 182.462L393.796 190.227L377.965 203.814L374.007 209.637L383.902 213.52L389.838 219.343L409.627 229.048L411.606 230.989V244.577L397.754 296.986L391.817 335.808H387.86V349.396L364.113 345.514L332.451 337.749H328.493L322.557 343.573L304.747 345.514L284.958 355.219H281L277.043 364.924L267.148 395.982L259.233 419.275L257.254 456.156V487.213L261.212 520.211L273.085 562.915L279.021 576.503L300.789 619.207V623.089H296.831L279.021 592.032L265.169 559.033L253.296 520.211L249.338 493.036V448.391L255.275 407.628L269.127 359.101L279.021 335.808L292.874 310.574H296.831L300.789 298.927V293.104L298.81 287.281L320.578 260.106L338.388 240.695L352.24 225.166L370.05 205.755L393.796 180.521L401.712 168.875L409.627 155.287L417.543 139.758L425.458 122.289L441.289 91.2311L455.141 67.9381L465.036 56.2915L474.93 48.5272L486.803 34.9396L502.634 25.2341L510.55 19.4109L520.444 21.352L522.423 9.70544Z" fill="#C65785"/>
<path d="M330.472 333.867L332.45 337.749L360.155 341.631L385.88 347.455L387.859 335.808H389.838L391.817 370.748L393.796 394.041L391.817 390.158L385.88 388.217L381.922 376.571L372.028 378.512L346.303 368.807L330.472 366.865L328.493 345.513L320.577 361.042L308.704 401.805L300.789 446.45L298.81 467.802V498.859L304.746 539.622L316.619 580.385L334.429 617.266L360.155 658.029L385.88 691.027L403.69 714.32L409.627 727.908L423.479 749.26L427.436 760.906L437.331 778.376L435.352 782.258L411.605 745.378L383.901 708.497L370.049 691.027V687.145L364.112 685.204L350.26 665.793L348.281 671.616V675.498H344.324L342.345 679.381L334.429 675.498L322.556 659.97L316.619 650.264L300.789 628.912L294.852 611.442L286.936 595.914V592.032L282.979 590.091L271.105 562.915L259.232 520.211L255.274 487.213V456.155L257.253 419.275L267.148 388.217L277.042 361.042L286.936 351.337L310.683 341.631H326.514L330.472 333.867Z" fill="#C32F8F"/>
<path d="M225.591 658.029L233.507 667.734V671.616L243.401 673.557L259.232 692.968L277.042 716.261L294.852 737.613L316.619 762.847L338.387 786.14L360.155 811.374L374.007 828.844L385.88 834.668H397.753L405.669 830.785L431.394 826.903L449.204 828.844L461.077 846.314L470.972 865.725L474.929 863.784L476.908 883.195V945.31L470.972 984.131L461.077 1017.13L447.225 1044.3L443.267 1046.25L441.289 1009.37L435.352 980.249L421.5 941.427L403.69 904.547L383.901 871.548L368.07 850.196L344.324 819.139L322.556 795.846L304.746 774.494L282.979 749.26L267.148 729.849L253.296 712.379L237.465 687.145L225.591 663.852V658.029Z" fill="#6C0FB9"/>
<path d="M672.817 496.918L688.648 508.565L714.373 535.74L734.162 560.974L751.972 584.267L773.739 619.207L791.549 650.264L809.359 689.086L829.148 747.319L839.042 795.846V830.785H837.063L833.106 817.198L827.169 811.374L805.401 813.315L789.57 809.433L791.549 856.019L789.57 890.959L785.613 898.723L783.634 887.077L781.655 807.492L775.718 760.906L769.782 735.672L759.887 698.791L755.93 685.204L736.141 634.735L712.394 578.444L692.606 537.681H686.669L672.817 502.741V496.918Z" fill="#C66F8A"/>
<path d="M706.458 817.198H708.437V881.254L704.479 914.252L696.564 920.075V916.193L682.711 918.134L668.859 923.958L647.092 925.899L643.134 927.84L631.261 966.661L627.303 970.544L625.324 964.72L627.303 943.368L625.324 935.604L615.43 937.545L595.641 933.663L569.916 931.722L562 923.958V920.075H558.042L556.063 927.84L558.042 908.429L563.979 863.784L565.958 857.961L571.894 856.019L577.831 850.196L581.789 848.255L591.683 840.491L623.345 844.373L625.324 840.491L637.197 842.432L639.176 846.314L641.155 875.43L637.197 929.781L641.155 904.547L645.113 836.609L647.092 834.667L668.859 832.726L682.711 830.785V826.903L698.542 824.962L704.479 826.903L706.458 817.198Z" fill="#C42E8E"/>
<path d="M318.599 1007.42L330.472 1013.25L340.366 1022.95L358.176 1046.25L374.007 1073.42L372.028 1087.01L362.134 1090.89L358.176 1110.3L352.24 1121.95L344.324 1129.71L334.43 1135.54H328.493L326.514 1129.71L322.556 1137.48L286.937 1133.6L271.106 1125.83L263.19 1120.01V1116.13L243.401 1110.3L237.465 1106.42L241.423 1098.66L251.317 1085.07L253.296 1067.6V1044.3L243.401 1019.07V1013.25L251.317 1021.01L255.275 1030.72L281 1032.66L290.894 1024.89L304.747 1013.25L318.599 1007.42Z" fill="#5F3DDC"/>
<path d="M789.57 809.433L805.401 811.375H817.275L827.169 809.433L829.148 815.257L837.063 819.139L841.021 811.375L843 832.727V908.429L835.084 958.897L825.19 997.719H821.232L817.275 989.955L805.401 988.014L785.613 978.308L779.676 974.426V970.544L775.718 972.485L765.824 1003.54L748.014 1044.31L734.162 1071.48H730.204L736.141 1052.07L744.056 1038.48L759.887 995.778L761.866 982.19L767.803 964.72H771.76L773.739 949.192L779.676 906.488L781.655 879.313L785.613 887.077V894.841L787.591 881.254L789.57 844.373V809.433Z" fill="#C5448A"/>
<path d="M468.993 632.794L480.866 642.5L510.549 681.322V685.204H514.507L530.338 712.379L542.211 737.613L544.19 747.319L556.063 780.317L562 813.316L563.979 832.726V879.312L556.063 935.604L536.275 984.131L508.57 1034.6L486.803 1063.72L465.035 1088.95L447.225 1108.36L431.394 1121.95L413.584 1135.54L385.88 1153.01L358.176 1168.53L330.472 1180.18L296.831 1189.89L261.211 1195.71H205.803L172.162 1189.89L136.542 1178.24L102.901 1160.77L83.1125 1145.24L67.2815 1131.65L45.5139 1102.54L29.6829 1071.48L19.7886 1046.25V1040.42H23.7463L41.5562 1061.77L69.2604 1083.13L93.0069 1096.71L118.732 1106.42L144.458 1112.24L164.246 1114.18H189.972L219.655 1106.42L237.465 1094.77L247.359 1083.13L255.275 1073.42L253.296 1085.07L241.422 1100.6L221.634 1114.18L193.929 1121.95H152.373L122.69 1116.13L96.9646 1106.42L67.2815 1090.89L49.4717 1077.3L41.5562 1075.36L45.5139 1087.01L53.4294 1098.66L69.2604 1118.07L96.9646 1145.24L118.732 1158.83L150.394 1174.36L172.162 1182.12L193.929 1186H265.169L302.767 1178.24L334.429 1166.59L383.901 1141.36L393.796 1135.54H397.753V1131.65L419.521 1116.13L439.31 1098.66L451.183 1088.95L468.993 1067.6L490.76 1038.48L506.591 1011.31L516.486 989.954L524.401 988.013V982.19H530.338L534.296 966.661L544.19 939.486L550.127 916.193L554.084 887.077V813.316L546.169 774.494L532.317 735.672L514.507 700.732L506.591 692.968L500.655 679.38L496.697 671.616H492.739L488.782 661.911H484.824L472.951 644.441L467.014 634.735L468.993 632.794Z" fill="#BD4D8C"/>
<path d="M676.774 1174.36H682.711V1178.24H686.669L684.69 1189.89L700.521 1182.12H706.457L680.732 1205.42L647.091 1228.71L605.535 1252L550.126 1275.29L520.443 1285H312.662V1283.06L399.732 1277.24L435.352 1271.41L474.929 1259.77L514.507 1246.18L540.232 1234.53L558.042 1228.71L567.936 1224.83L583.767 1220.94L593.662 1213.18L607.514 1207.36L629.281 1193.77L643.134 1184.06L672.817 1176.3L676.774 1174.36Z" fill="#6C0FB9"/>
<path d="M510.549 1026.84H514.507V1032.66H526.38L538.254 1038.48L546.169 1048.19L554.085 1052.07L565.958 1050.13L577.831 1044.3L581.789 1046.25L583.768 1044.3H589.704L587.725 1057.89L585.746 1061.77L597.62 1054.01L601.577 1055.95L619.387 1057.89V1054.01H627.303L639.176 1050.13L653.028 1044.3H658.965L645.113 1067.6L625.324 1092.83L607.514 1114.18L583.768 1137.48L573.873 1135.54V1131.65L563.979 1127.77L558.042 1123.89V1120.01H554.085V1114.18L548.148 1112.24L538.254 1102.54L526.38 1096.71L508.57 1088.95L480.866 1085.07L472.951 1077.3L488.782 1059.83L508.57 1030.72L510.549 1026.84Z" fill="#920EAA"/>
<path d="M372.028 1079.24H375.986L379.943 1087.01L383.901 1102.54L389.838 1121.95V1139.42L354.218 1158.83L320.577 1174.36L286.936 1184.06H263.19L259.232 1174.36L237.464 1158.83L215.697 1141.36L209.76 1135.54L193.929 1127.77L172.162 1125.83V1123.89L201.845 1118.07L225.591 1110.3L233.507 1104.48L253.295 1110.3L263.19 1116.13V1120.01L271.105 1123.89L288.915 1131.65L322.556 1135.54L324.535 1123.89L328.493 1129.71V1135.54L344.324 1127.77H348.281L352.239 1120.01L362.133 1090.89L372.028 1087.01V1079.24Z" fill="#5C4CE5"/>
<path d="M480.866 174.698L488.782 176.639V192.168L478.887 230.989L476.908 250.4V310.574L480.866 339.69L492.739 388.218L502.634 415.393L516.486 442.568L514.507 446.45L498.676 419.275L482.845 378.512L474.929 339.69L472.951 322.221L470.972 254.282L467.014 252.341L463.056 244.577L449.204 236.813H437.331L425.458 244.577L409.627 279.517L401.711 308.633L399.732 318.338V368.807L407.648 409.569L419.521 442.568L441.289 481.39L461.077 508.565L474.929 526.035L492.739 545.446L510.549 566.798L530.338 592.032L552.105 623.089L550.127 626.971L532.317 605.619L522.422 597.855L504.612 576.503L482.845 551.269L461.077 524.094L441.289 498.86L419.521 463.92L403.69 428.98L393.796 394.041L389.838 370.748V335.808L395.774 296.986L405.669 260.106L409.627 244.577V230.989L383.901 217.402V213.52L374.007 209.637L377.965 201.873L391.817 190.227L431.394 201.873V209.637L443.267 203.814H447.225L451.183 196.05L463.056 186.344L472.951 182.462L480.866 174.698Z" fill="#C87FB3"/>
<path d="M332.451 440.627L336.409 444.509L348.282 475.566L364.113 506.624L379.944 531.858L407.648 568.739L427.437 592.032L441.289 607.56L465.035 632.795V636.677L470.972 638.618L484.824 658.029V661.911H488.782L492.74 671.616H496.697L506.592 685.204L510.55 696.85L518.465 704.615L538.254 745.378L550.127 780.317L556.064 813.316V887.077L550.127 923.958L542.212 953.074L530.338 982.19H524.402V988.014L518.465 989.955L524.402 972.485L536.275 931.722L542.212 896.782L544.19 875.43V854.079L540.233 813.316L532.317 780.317L518.465 743.437L502.634 712.379L482.845 681.322L463.057 656.088L439.31 628.912L421.5 609.501L399.733 582.326L372.028 547.387L354.219 518.27L338.388 485.272L328.493 448.391V444.509H332.451V440.627Z" fill="#A6149F"/>
<path d="M560.021 766.73L563.979 768.671L567.937 776.435L605.535 790.023L621.366 793.905L631.261 797.787L635.218 813.316H639.176V799.728L651.049 791.964L666.88 790.023H684.69V784.199L694.585 786.14L700.521 791.964L704.479 786.14L706.458 799.728V828.844L694.585 826.903H682.711V830.786L664.902 834.668L647.092 836.609L643.134 904.547L637.197 937.545H635.218L639.176 867.666L637.197 842.432H625.324L623.345 844.373L591.683 842.432L583.768 848.255L581.789 852.137H573.873L571.894 857.961H565.958L563.979 863.784L560.021 813.316L556.063 788.082V772.553L560.021 770.612V766.73Z" fill="#C6448A"/>
<path d="M0 811.375H3.95775L7.91549 875.431H11.8732L17.8099 896.783V902.606H33.6409L49.4718 914.252L63.324 933.663L75.1972 951.133L85.0916 968.603L100.923 988.014L106.859 995.778L114.775 1017.13V1030.72L108.838 1036.54V1042.36L126.648 1059.83L132.585 1073.42L118.732 1069.54L98.9437 1052.07L73.2183 1026.84L51.4507 999.66L29.6831 964.721L15.831 935.604L3.95775 894.841L0 867.666V811.375Z" fill="#5C4DE5"/>
<path d="M108.838 590.091L112.796 592.032L102.901 619.207L94.9858 650.264L93.0069 665.793V724.026L98.9436 760.906L108.838 791.964L128.627 832.726L146.437 856.02L170.183 883.195L191.951 902.606L217.676 922.017L257.253 949.192L284.958 970.544L304.746 988.013L308.704 989.955V993.837L298.81 989.955V986.072L288.915 982.19L273.084 970.544L245.38 951.133L201.845 922.017L176.12 902.606L156.331 885.136L140.5 865.725L138.521 859.902H134.563L114.775 828.844L102.901 805.551L89.0492 772.553L77.1759 718.202V714.32L69.2604 718.202L65.3027 731.79V764.788L71.2393 801.669L81.1337 832.726L96.9647 861.843L106.859 875.43V879.313H110.817L126.648 900.665L189.972 962.779L193.929 968.603L186.014 964.72L160.289 943.368L136.542 922.017L118.732 904.547L96.9647 877.371L79.1548 848.255L65.3027 811.375L59.3661 784.199L57.3872 766.729V739.554L65.3027 685.204L77.1759 644.441L96.9647 607.56L100.922 597.855L108.838 590.091Z" fill="#BF75C3"/>
<path d="M672.817 496.918L688.648 508.565L714.373 535.74L734.162 560.974L751.972 584.267L773.739 619.207L791.549 650.264L803.423 675.498L801.444 679.38L787.592 663.852L777.697 661.911L767.803 671.616L765.824 689.086L779.676 747.319L787.592 790.022L791.549 844.373L789.57 890.959L785.613 898.723L783.634 887.077L781.655 807.492L775.718 760.906L769.782 735.672L759.887 698.791L755.93 685.204L736.141 634.735L712.394 578.444L692.606 537.681H686.669L672.817 502.741V496.918Z" fill="#C67BB2"/>
<path d="M403.69 718.202L413.585 727.908L431.395 753.142L449.204 784.199L465.035 823.021L472.951 852.137V867.666L467.014 861.843L451.183 832.727L439.31 828.844H425.458L399.733 834.668L389.838 836.609L379.944 834.668L370.05 824.962L350.261 803.61L332.451 782.258L306.726 755.083L308.704 751.201L324.535 766.73L336.409 780.317L338.388 776.435L348.282 774.494L350.261 770.612L370.05 778.376L375.986 776.435L399.733 770.612L415.564 774.494L423.479 770.612L431.395 772.553L433.373 774.494L423.479 758.965L419.521 747.319L403.69 722.085V718.202Z" fill="#930EA9"/>
<path d="M690.626 535.74L696.563 541.563L718.331 586.208L746.035 654.146L755.929 681.322L761.866 698.791L771.76 735.672L777.697 762.847V776.435L773.739 770.612L771.76 762.847H767.802L759.887 753.142L755.929 751.201L753.95 757.024L746.035 751.201L740.098 733.731L728.225 724.025L726.246 735.672H722.288L720.309 747.319L728.225 760.906L738.119 768.67L744.056 790.022L746.035 799.728L742.077 801.669L726.246 770.612L712.394 749.26L714.373 733.731L716.352 720.143V669.675L710.415 621.148L702.5 586.208L690.626 547.387L688.647 537.681L690.626 535.74Z" fill="#C4428B"/>
<path d="M686.669 914.252L696.564 916.193H702.5L700.522 931.722L690.627 968.602L682.712 966.661L676.775 964.72L666.881 972.485L655.007 978.308L633.24 982.19L625.324 984.131L623.345 988.013L619.388 984.131L617.409 974.426L593.662 972.485L591.684 970.544L562 968.602L548.148 962.779L546.169 956.956L556.064 927.84L558.043 920.075H562L569.916 929.781L595.641 931.722L617.409 935.604H625.324V941.427L629.282 943.368L627.303 968.602L633.24 955.015L641.155 927.84L647.092 923.957L668.86 922.016L686.669 914.252Z" fill="#B61D97"/>
<path d="M330.472 333.867L332.45 337.749L360.155 341.631L385.88 347.455L387.859 335.808H389.838L391.817 370.748L393.796 394.041L391.817 390.158L385.88 388.217L381.922 376.571L372.028 378.512L346.303 368.807L330.472 366.865L328.493 345.513L320.577 361.042L308.704 401.805L300.789 446.45L296.831 463.92H294.852L292.873 434.803L294.852 421.216H290.894L279.021 440.627L271.105 438.686L267.148 442.568L261.211 438.686V460.038L259.232 473.625L261.211 508.565H257.253L255.274 487.213V456.155L257.253 419.275L267.148 388.217L277.042 361.042L286.936 351.337L310.683 341.631H326.514L330.472 333.867Z" fill="#C5448A"/>
<path d="M318.599 1007.42L330.472 1013.25L340.366 1022.95L358.176 1046.25L362.134 1055.95H352.239L336.408 1067.6L330.472 1079.24L318.599 1088.95L306.725 1081.19L298.81 1069.54L294.852 1067.6L300.789 1077.3V1088.95L294.852 1092.83L279.021 1090.89L271.106 1085.07L255.275 1083.13L253.296 1067.6V1044.3L243.401 1019.07V1013.25L251.317 1021.01L255.275 1030.72L281 1032.66L290.894 1024.89L304.746 1013.25L318.599 1007.42Z" fill="#6428CF"/>
<path d="M726.246 1081.19L730.204 1083.13L728.225 1092.83L734.161 1094.77L748.014 1090.89L761.866 1092.83L765.823 1096.71L775.718 1100.6L765.823 1118.07L748.014 1139.42L730.204 1158.83L708.436 1180.18L690.626 1189.89H684.69L686.668 1178.24H682.711V1174.36L660.943 1182.12L643.133 1186L611.471 1207.36L601.577 1213.18L597.619 1211.24L627.302 1189.89L653.028 1170.48L676.774 1147.18L694.584 1125.83L712.394 1102.54L726.246 1081.19Z" fill="#920EAA"/>
<path d="M706.457 817.198H708.436V881.254L704.479 914.252L696.563 920.075V916.193L682.711 918.134L668.859 923.958L647.091 925.899L639.176 927.84L643.134 875.43L645.112 836.609L647.091 834.667L668.859 832.726L682.711 830.785V826.903L698.542 824.962L704.479 826.903L706.457 817.198Z" fill="#C22D8F"/>
<path d="M372.028 207.696L383.901 213.52L389.838 219.343L409.627 229.048L411.605 230.989V244.577L397.753 296.986L393.796 318.338L385.88 310.574L383.901 306.692L368.07 304.751L356.197 300.868L340.366 291.163L330.472 279.517V263.988L334.429 260.106L330.472 252.341L360.155 221.284L372.028 207.696Z" fill="#C77189"/>
<path d="M197.887 518.27H199.866L201.845 562.915L207.781 593.973V603.678L203.824 595.914L195.908 578.444V599.796L201.845 634.736L215.697 689.086L223.612 712.379V733.731L215.697 727.908L211.739 725.967L205.803 712.379L193.929 702.674L189.972 700.732V694.909L182.056 692.968V689.086H178.098L174.141 681.322L170.183 669.675L168.204 621.148H166.225L168.204 595.914L182.056 541.563L189.972 526.035L197.887 518.27Z" fill="#6C0FB9"/>
<path d="M221.634 718.202H225.592L241.423 753.142L257.254 782.258L277.042 807.492L298.81 834.668L314.641 850.196L328.493 865.725L348.282 889.018L374.007 927.84L383.902 947.251L381.923 953.074L366.092 933.663L372.028 949.192L366.092 951.133L354.219 927.84L330.472 900.665L320.578 892.9V889.018H316.62L314.641 881.254H310.683L304.747 871.548L300.789 869.607V865.725L292.873 861.843L286.937 852.137L277.042 842.432L249.338 807.492L233.507 791.964L221.634 758.965L217.676 745.378L219.655 741.495L223.613 739.554L221.634 718.202Z" fill="#7010B7"/>
<path d="M19.7886 1040.42H23.7463L41.5562 1061.77L69.2604 1083.13L93.0069 1096.71L118.732 1106.42L144.458 1112.24L164.246 1114.18H189.972L219.655 1106.42L237.465 1094.77L247.359 1083.13L255.275 1073.42L253.296 1085.07L241.422 1100.6L221.634 1114.18L193.929 1121.95H152.373L122.69 1116.13L96.9646 1106.42L67.2815 1090.89L49.4717 1077.3L41.5562 1075.36L45.5139 1087.01L53.4294 1098.66L69.2604 1118.07L96.9646 1145.24L118.732 1158.83L150.394 1174.36L172.162 1182.12L193.929 1186H265.169L302.767 1178.24L334.429 1166.59L362.134 1153.01H366.091L364.113 1160.77L370.049 1162.71L336.408 1178.24L306.725 1187.95L277.042 1193.77L261.211 1195.71H205.803L172.162 1189.89L136.542 1178.24L102.901 1160.77L83.1125 1145.24L67.2815 1131.65L45.5139 1102.54L29.6829 1071.48L19.7886 1046.25V1040.42Z" fill="#B888E0"/>
<path d="M245.38 956.956L259.232 958.897L286.937 978.308L298.81 986.073V989.955L312.662 993.837L330.472 1011.31L328.493 1015.19L318.598 1009.37L302.768 1017.13L290.894 1026.84L281 1034.6L263.19 1032.66L255.275 1030.72L247.359 1019.07V1015.19L237.465 1011.31L231.528 1005.48L229.549 991.896L227.57 984.131L233.507 978.308H237.465L243.401 960.838L245.38 956.956Z" fill="#930EA9"/>
<path d="M789.57 896.782L809.359 902.606L827.168 908.429L829.147 914.252H833.105V968.603L825.19 997.719H821.232L817.274 989.955L805.401 988.014L785.612 978.308L779.676 974.426V970.544H775.718L785.612 918.134L789.57 896.782Z" fill="#C32D8F"/>
<path d="M763.845 881.254H767.803V914.252L765.824 941.427L763.845 947.251H769.782L775.719 927.84H777.698L775.719 949.192L771.761 964.72H767.803L765.824 978.308L761.867 988.013L759.888 999.66L744.057 1044.3L736.141 1055.95L732.183 1071.48L728.226 1081.19L704.479 1116.13L686.669 1137.48L662.923 1162.71L649.071 1176.3L619.388 1197.65L591.683 1217.06L579.81 1224.83L562 1228.71L550.127 1234.53L544.19 1232.59L573.874 1217.06L597.62 1201.53L621.367 1184.06L641.155 1166.59L656.986 1153.01L684.69 1121.95L712.395 1081.19L728.226 1052.07L746.036 1005.48L755.93 964.72L761.867 922.016L763.845 881.254Z" fill="#C05089"/>
<path d="M522.423 9.70544H524.402L522.423 25.2341L508.571 36.8807L504.613 48.5272L496.697 64.0559L480.866 87.3489L468.993 102.878L457.12 112.583L453.162 118.406H449.204L447.225 124.23L437.331 133.935L421.5 153.346L415.563 159.169L397.754 182.462L393.796 190.227L377.965 203.814L364.113 217.402L350.261 232.931L326.514 258.165V252.341L354.218 223.225L368.071 207.696L395.775 178.58L405.669 161.11L415.563 145.582L425.458 122.289L441.289 91.2311L455.141 67.9381L465.035 56.2915L474.93 48.5272L486.803 34.9396L502.634 25.2341L510.549 19.4109L520.444 21.352L522.423 9.70544Z" fill="#C75785"/>
<path d="M358.176 491.095L366.092 500.801L383.902 527.976L397.754 545.446L417.542 566.798L431.395 582.326L443.268 595.914L449.204 599.796L465.035 597.855L476.909 586.209L490.761 578.444L492.74 562.915L502.634 570.68L518.465 590.091L526.381 601.737L520.444 599.796L510.55 619.207L502.634 626.971L500.655 636.677L478.888 634.736L467.014 626.971L451.183 609.502V613.384L449.204 617.266L427.437 595.914L385.881 543.505L366.092 514.388L358.176 500.801V491.095Z" fill="#C74589"/>
<path d="M488.781 683.263L496.697 687.145L508.57 706.556V710.438H512.528V698.791L518.464 704.615L538.253 745.378L550.126 780.317L556.063 813.316V887.077L550.126 923.958L542.211 953.074L530.338 982.19H524.401V988.014L518.464 989.955L524.401 972.485L536.274 931.722L542.211 896.782L544.19 875.43V854.078L540.232 813.316L532.316 780.317L518.464 743.436L502.633 712.379L492.739 696.85L488.781 683.263Z" fill="#B21E98"/>
<path d="M330.472 966.662L338.387 968.603L344.324 978.308L352.239 982.19L362.134 993.837L372.028 999.66L377.965 1009.37L379.944 1011.31H391.817L389.838 995.778L385.88 982.19L387.859 976.367H391.817L393.796 972.485L401.711 1005.48L403.69 1019.07V1061.77L399.732 1092.83L393.796 1102.54L387.859 1104.48L391.817 1118.07V1133.6L397.753 1135.54L389.838 1137.48L385.88 1114.18L379.944 1098.66L381.922 1090.89L385.88 1096.71H391.817L387.859 1077.3L368.07 1036.54L336.408 991.896L324.535 978.308L328.493 968.603L330.472 966.662Z" fill="#6B0FB9"/>
<path d="M168.204 910.37H184.035L201.845 920.075L245.38 949.192L253.295 956.956H245.38L239.443 974.426L229.549 984.131L231.528 1001.6L217.676 989.955L195.908 972.485L184.035 958.897L178.098 949.192L174.14 945.31L176.119 937.545L178.098 927.84L164.246 925.899L166.225 916.193L168.204 910.37Z" fill="#C42E8E"/>
<path d="M106.859 813.316L110.817 819.139L132.585 854.078L134.564 859.902H138.521L158.31 885.136L180.078 904.547L193.93 914.252L189.972 916.193L184.035 912.311L168.204 910.37L166.226 920.075L164.247 925.899H178.099L180.078 933.663L176.12 939.486L178.099 947.251L184.035 955.015L176.12 951.133L120.711 896.782L110.817 883.195V879.313H106.859L98.9438 867.666L100.923 863.784L104.88 867.666L110.817 852.137L122.69 848.255L114.775 834.668L110.817 832.726V828.844H106.859L104.88 821.08L100.923 819.139L106.859 813.316Z" fill="#C74589"/>
<path d="M789.57 809.433L805.401 811.375H817.275L827.169 809.433L829.148 815.257L837.063 819.139L841.021 811.375L843 832.727V908.429L839.042 927.84H837.063V883.195L835.084 877.372L813.317 869.607L791.549 863.784L789.57 844.373V809.433Z" fill="#C35387"/>
<path d="M672.817 496.918L688.648 508.565L714.373 535.74L734.162 560.974L751.972 584.267L771.761 615.325V623.089L763.845 619.207L755.93 609.501L746.035 605.619L740.099 611.442L742.077 619.207V636.677L736.141 634.735L712.394 578.444L692.606 537.681H686.669L672.817 502.741V496.918Z" fill="#C37DC7"/>
<path d="M73.2182 665.793L77.1759 667.734L79.1548 679.381L81.1337 694.909L83.1126 696.85L91.0281 758.965L100.922 790.023L102.901 799.728L98.9436 797.787L89.0492 772.553L77.1759 718.202V714.32L69.2604 718.202L65.3027 731.79V764.789L71.2393 801.669L81.1337 832.727L96.9647 861.843L106.859 875.431V879.313H110.817L126.648 900.665L189.972 962.779L193.929 968.603L186.014 964.721L160.289 943.369L136.542 922.017L118.732 904.547L96.9647 877.372L79.1548 848.255L65.3027 811.375L59.3661 784.199L57.3872 766.73V739.554L65.3027 685.204L71.2393 667.734L73.2182 665.793Z" fill="#C780B9"/>
<path d="M518.465 50.468H524.402L526.381 64.0556V75.7022L528.36 85.4076H522.423L516.486 104.818H512.529V110.642L494.719 122.288L474.93 139.758L468.993 145.581H457.12L459.099 133.935L463.057 122.288L461.078 118.406L472.951 102.877L480.867 93.1719L482.845 87.3487L490.761 79.5843L504.613 60.1735L512.529 54.3502L518.465 50.468Z" fill="#BA8BE1"/>
<path d="M690.626 535.74L696.563 541.563L718.331 586.208L746.035 654.146L748.014 659.97V673.557L744.056 683.263L748.014 689.086V700.732L749.993 706.556L740.098 708.497L736.14 700.732L730.204 706.556L728.225 702.674V675.498L724.267 654.146L718.331 640.559V628.912H714.373L712.394 632.794L704.478 592.032L690.626 547.387L688.647 537.681L690.626 535.74Z" fill="#C22E8F"/>
<path d="M393.796 328.044H395.775L397.753 382.394H401.711L409.627 417.334L421.5 446.45L441.289 481.39L461.077 508.565L474.929 526.035L492.739 545.446L510.549 566.797L530.338 592.032L552.106 623.089L550.127 626.971L532.317 605.619L522.422 597.855L504.613 576.503L482.845 551.269L461.077 524.094L441.289 498.859L419.521 463.92L403.69 428.98L393.796 394.041L389.838 370.748V335.808L393.796 328.044Z" fill="#C87FB4"/>
<path d="M13.8522 755.083L25.7255 758.965L31.6621 768.671V817.198L41.5565 859.902L39.5776 867.666L27.7044 840.491L25.7255 834.668L15.8311 838.55L9.8945 848.255L5.93675 846.314L3.95788 803.61H1.979L3.95788 780.317L9.8945 757.024L13.8522 755.083Z" fill="#6429CF"/>
<path d="M96.9644 601.737L98.9433 607.56L79.1545 644.441L67.2813 685.204L65.3024 696.85L61.3447 692.968L55.408 706.556L47.4925 708.497L37.5982 718.202L27.7038 731.79H21.7672L17.8094 749.26H15.8306V737.613L31.6616 698.792L51.4503 661.911L79.1545 623.089L96.9644 601.737Z" fill="#900EAA"/>
<path d="M296.831 289.222L304.746 293.104L296.831 310.574H292.873L288.915 322.22L273.084 353.278L259.232 397.923L255.275 411.51L247.359 409.569L243.401 403.746V397.923L237.465 403.746H233.507L229.549 413.452H227.57L229.549 397.923L245.38 366.865L263.19 335.808L279.021 314.456L296.831 289.222Z" fill="#A313A0"/>
<path d="M306.726 568.739H312.662L324.535 597.855L340.366 626.971L364.113 663.852L385.881 691.027L403.69 714.32L409.627 727.908L423.479 749.26L427.437 760.906L437.331 778.376L435.352 782.258L411.606 745.378L383.902 708.497L370.05 691.027V687.145L364.113 685.204L344.324 656.088L326.514 625.03L312.662 593.973L306.726 568.739Z" fill="#C06BAC"/>
<path d="M166.225 650.264H168.204L172.162 694.909L178.098 725.967L193.929 776.435L209.76 811.375L225.591 840.491L249.338 877.372L257.253 890.959L249.338 887.077L239.443 879.313L215.697 846.314L197.887 815.257L186.014 788.082L174.141 751.201L168.204 722.085L166.225 704.615V650.264Z" fill="#A877DD"/>
<path d="M775.718 970.544H779.676V974.426L789.57 978.308L811.338 988.014L819.253 989.955L823.211 997.719L821.232 1011.31L813.317 1032.66L807.38 1030.72L803.422 1022.95L775.718 1015.19L767.803 1005.48L769.782 988.014L775.718 970.544Z" fill="#B51D97"/>
<path d="M19.7886 1040.42H23.7463L41.5562 1061.77L69.2604 1083.13L93.0069 1096.71L118.732 1106.42L144.458 1112.24L164.246 1114.18H189.972L219.655 1106.42L237.465 1094.77L247.359 1083.13L255.275 1073.42L253.296 1085.07L241.422 1100.6L221.634 1114.18L193.929 1121.95H152.373L122.69 1116.13L96.9646 1106.42L67.2815 1090.89L49.4717 1077.3L41.5562 1075.36L35.6196 1081.19L31.6618 1077.3L19.7886 1046.25V1040.42Z" fill="#AD72D7"/>
<path d="M120.711 821.08L126.648 828.844L144.458 854.079L170.183 883.195L191.951 902.606L217.676 922.017L257.254 949.192L284.958 970.544L304.747 988.014L308.704 989.955V993.837L298.81 989.955V986.073L288.916 982.19L273.085 970.544L245.38 951.133L201.845 922.017L176.12 902.606L156.331 885.136L148.416 875.431L144.458 865.725L128.627 846.314L118.732 828.844L120.711 821.08Z" fill="#BA6FC5"/>
<path d="M0 811.375H3.95775L7.91549 867.666L17.8099 906.488L31.662 943.369L47.493 974.426L67.2817 1003.54L77.1761 1015.19L79.1549 1024.89L69.2606 1021.01L51.4507 999.66L29.6831 964.721L15.831 935.604L3.95775 894.841L0 867.666V811.375Z" fill="#AF79DB"/>
<path d="M468.993 632.794L480.866 642.5L510.549 681.322V685.204H514.507L530.338 712.379L542.211 737.613L544.19 747.319L556.063 780.317L562 813.316L563.979 832.726V879.312L560.021 890.959L556.063 887.077L554.085 813.316L546.169 774.494L532.317 735.672L514.507 700.732L506.592 692.968L500.655 679.38L496.697 671.616H492.74L488.782 661.911H484.824L472.951 644.441L467.014 634.735L468.993 632.794Z" fill="#C77EB1"/>
<path d="M522.423 9.70544H524.402L522.423 25.2341L502.634 36.8807L484.824 52.4094L463.056 69.8792L453.162 85.4079L441.289 106.76L425.458 143.64L411.606 164.992L395.775 184.403L393.796 190.227L377.965 203.814L364.113 217.402L350.261 232.931L326.514 258.165V252.341L354.218 223.225L368.071 207.696L395.775 178.58L405.669 161.11L415.563 145.582L425.458 122.289L441.289 91.2311L455.141 67.9381L465.035 56.2915L474.93 48.5272L486.803 34.9396L502.634 25.2341L510.549 19.4109L520.444 21.352L522.423 9.70544Z" fill="#6C0FB9"/>
<path d="M106.859 813.316L110.817 819.139L132.585 854.078L142.479 869.607L150.395 881.254H146.437L144.458 887.077L130.606 902.606L136.542 904.547L144.458 916.193L136.542 912.311L120.711 896.782L110.817 883.195V879.313H106.859L98.9438 867.666L100.923 863.784L104.88 867.666L110.817 852.137L122.69 848.255L114.775 834.668L110.817 832.726V828.844H106.859L104.88 821.08L100.923 819.139L106.859 813.316Z" fill="#C75885"/>
<path d="M148.416 1017.13L158.31 1022.95L172.162 1036.54L187.993 1050.13L205.803 1067.6L217.676 1087.01L223.613 1106.42L199.866 1114.18L189.972 1116.13H172.162L170.183 1110.3H182.056L191.951 1098.66V1073.42L182.056 1054.01L168.204 1038.48L162.268 1034.6V1030.72H158.31V1026.84L150.394 1022.95L148.416 1017.13Z" fill="#6329D0"/>
<path d="M550.126 790.023H552.105L556.063 813.316V887.077L550.126 923.958L542.211 953.074L530.338 982.19H524.401V988.014L518.464 989.955L524.401 972.485L536.274 931.722L542.211 896.782L546.169 850.196L550.126 846.314L552.105 852.137V819.139L550.126 790.023Z" fill="#BE2F90"/>
<path d="M567.936 1224.83L575.852 1226.77L538.253 1246.18L512.528 1255.88L502.633 1261.71L476.908 1269.47L445.246 1275.29L433.373 1279.18L423.479 1281.12L383.901 1285H312.662V1283.06L399.732 1277.24L435.352 1271.41L474.929 1259.77L514.507 1246.18L540.232 1234.53L558.042 1228.71L567.936 1224.83Z" fill="#614DE0"/>
<path d="M245.38 956.956L259.232 958.897L273.084 968.603L271.106 976.367L259.232 1005.48H255.275L253.296 1011.31L245.38 1007.42L237.465 999.66L231.528 997.719L227.57 989.955L229.549 982.19L237.465 978.308L243.401 960.838L245.38 956.956Z" fill="#A7149E"/>
<path d="M526.38 0L530.338 3.88218L534.296 13.5876L540.233 23.2931L542.211 31.0574V56.2915L528.359 98.9955H526.38V77.6435L524.402 71.8202V50.4683L510.549 58.2326L504.613 60.1737L508.571 48.5272L516.486 32.9985L522.423 19.4109L524.402 1.94109L526.38 0Z" fill="#C585CC"/>
<path d="M69.2604 714.32H77.1758L83.1125 733.731L93.0068 782.258L85.0913 784.199V788.082L75.197 784.199L71.2392 782.258L69.2604 776.435L65.3026 782.258L63.3237 764.789V731.79L69.2604 714.32Z" fill="#C77189"/>
<path d="M239.444 766.73L249.338 776.435L265.169 797.787L281 817.198L302.768 842.432L328.493 869.607L346.303 896.782L350.261 906.488L340.366 902.606L332.451 889.018L308.704 863.784L290.895 844.373L269.127 819.139L251.317 793.905L239.444 772.553V766.73Z" fill="#C773AE"/>
<path d="M781.655 879.313L785.613 887.077L787.591 898.724V918.134L777.697 966.662L767.803 999.66L748.014 1044.31L734.162 1071.48H730.204L736.141 1052.07L744.056 1038.48L759.887 995.778L761.866 982.19L767.803 964.721H771.76L773.739 949.192L779.676 906.488L781.655 879.313Z" fill="#C76489"/>
<path d="M255.275 407.628H259.233V428.98L257.254 456.156V487.213L261.212 520.212L273.085 562.915L279.021 576.503L300.789 619.207V623.089H296.831L279.021 592.032L265.169 559.033L253.296 520.212L249.338 493.036V448.391L255.275 407.628Z" fill="#C77DB1"/>
<path d="M560.021 885.136H562L560.021 908.429L554.084 941.427L534.296 988.013L516.486 1021.01H512.528V1013.25H508.57L510.549 1003.54L516.486 989.954L524.401 988.013V982.19H530.338L534.296 966.661L544.19 939.486L550.127 916.193L554.084 887.077L560.021 885.136Z" fill="#C76E8D"/>
<path d="M332.451 440.627L336.409 444.509L348.282 475.566L358.176 496.918V500.801H354.219L362.134 516.329L379.944 545.446L393.796 562.915L395.775 570.68L385.88 564.856L364.113 535.74L342.345 494.977L332.451 465.861L328.493 444.509H332.451V440.627Z" fill="#AC1B9B"/>
<path d="M358.176 491.095L366.092 500.801L383.902 527.976L397.754 545.446L417.542 566.798L431.395 582.326L449.204 603.678L451.183 617.266L437.331 605.619L421.5 588.15L399.733 560.974L372.028 524.094L358.176 500.801V491.095Z" fill="#C65087"/>
<path d="M516.486 27.175H520.443L516.486 36.8805L500.655 67.9379V71.8201L490.76 81.5255L486.803 87.3488H482.845L480.866 95.1131L465.035 114.524L449.204 128.112L431.394 149.464L421.5 161.11H417.542L413.584 168.874L401.711 178.58L405.669 170.816L417.542 153.346L427.436 143.64L443.267 124.229L453.162 116.465L465.035 102.877H468.993L472.95 95.1131L490.76 69.879L502.633 50.4681L504.612 40.7627L516.486 27.175Z" fill="#C77CB2"/>
<path d="M77.1758 832.726H81.1335L96.9645 861.843L106.859 875.43V879.313H110.817L126.648 900.665L189.972 962.779L193.929 968.603L186.014 964.72L160.288 943.368L136.542 922.016L118.732 904.547L102.901 885.136L98.9434 875.43L81.1335 846.314L77.1758 832.726Z" fill="#C77EB3"/>
<path d="M763.845 881.254H767.803V914.252L765.824 941.427L763.845 947.251H769.782L775.718 927.84H777.697L775.718 949.192L771.76 964.72H767.803L765.824 978.308L757.908 995.778L751.972 991.896L753.951 972.485L757.908 953.074L761.866 922.016L763.845 881.254Z" fill="#C0418C"/>
<path d="M39.5776 826.903L43.5354 830.785L55.4086 871.548L69.2607 902.605L87.0706 931.722L102.902 951.133L124.669 976.367L126.648 982.19L118.733 978.308L104.88 964.72L83.1129 937.545L59.3664 898.723L45.5143 863.784L39.5776 840.491V826.903Z" fill="#6429D0"/>
<path d="M253.296 1073.42L255.274 1079.24L247.359 1094.77L231.528 1108.36L215.697 1116.13L193.929 1121.95H152.373L122.69 1116.13V1112.24L164.246 1114.18H189.972L219.655 1106.42L237.465 1094.77L247.359 1083.13L253.296 1073.42Z" fill="#B687DF"/>
<path d="M227.57 842.432L235.486 850.196L259.232 881.254L284.958 912.311L288.915 923.958L282.979 925.899L273.084 920.075L251.317 894.841L245.38 887.077L247.359 883.195L255.275 889.018L235.486 859.902L227.57 846.314V842.432Z" fill="#5C5DE8"/>
<path d="M437.331 1104.48L441.289 1108.36L437.331 1116.13L423.479 1127.77L399.733 1145.24L374.007 1160.77H364.113L366.092 1151.06L393.796 1135.54H397.754V1131.65L411.606 1121.95L421.5 1120.01L437.331 1104.48Z" fill="#C16BA3"/>
<path d="M468.993 632.794L480.866 642.5L510.549 681.322V685.204H514.507L530.338 712.379L542.211 737.613H536.275L530.338 731.79L514.507 700.732L506.592 692.968L500.655 679.38L496.697 671.616H492.74L488.782 661.911H484.824L472.951 644.441L467.014 634.735L468.993 632.794Z" fill="#C76F8F"/>
<path d="M221.633 718.202H225.591L241.422 753.142L257.253 782.258L277.042 807.492L298.809 834.668L314.64 850.196L312.661 854.079L292.873 834.668L277.042 815.257L263.19 797.787L247.359 776.435L241.422 768.671L237.464 770.612L235.485 760.906H231.528L223.612 739.554L221.633 718.202Z" fill="#9412A7"/>
<path d="M96.9646 601.737L98.9435 607.56L79.1548 644.441L75.197 658.029L67.2815 659.97L63.3238 658.029V663.852L69.2604 665.793L59.366 675.498H49.4717L53.4294 665.793L57.3872 654.146L79.1548 623.089L96.9646 601.737Z" fill="#A5169F"/>
<path d="M609.493 580.385L619.387 588.149L641.155 621.148V625.03L653.028 628.912L670.838 667.734L680.732 692.968V696.85H676.774L655.007 654.146L631.26 617.266L609.493 584.267V580.385Z" fill="#C277B6"/>
<path d="M635.219 1172.42V1178.24H639.176L643.134 1180.18L619.388 1197.65L591.683 1217.06L579.81 1224.83L562 1228.71L550.127 1234.53L544.19 1232.59L573.874 1217.06L597.62 1201.53L621.367 1184.06L635.219 1172.42Z" fill="#BB2A92"/>
<path d="M314.641 854.079L328.493 865.725L348.281 889.018L374.007 927.84L383.901 947.251L381.922 953.074L346.303 910.37L348.281 904.547L332.45 877.372L314.641 857.961V854.079Z" fill="#8C0EAC"/>
<path d="M439.31 100.937L441.289 106.76L425.458 143.64L411.606 164.992L395.775 184.403L393.796 190.227L377.965 203.814L364.113 217.402L350.261 232.93L326.514 258.165V252.341L354.218 223.225L368.071 207.696L395.775 178.58L405.669 161.11L415.563 145.582H419.521L423.479 133.935L435.352 108.701L439.31 100.937Z" fill="#A4139F"/>
<path d="M684.69 1127.77V1133.59L678.754 1143.3L674.796 1151.06L649.071 1176.3L631.261 1182.12L641.155 1166.59L656.986 1153.01L670.838 1137.48L684.69 1127.77Z" fill="#BE408E"/>
<path d="M465.035 1265.59L472.95 1267.53L461.077 1273.35L445.246 1275.29L433.373 1279.18L423.479 1281.12L383.901 1285H312.662V1283.06L399.732 1277.24L435.352 1271.41L465.035 1265.59Z" fill="#814FD7"/>
<path d="M403.69 718.202L413.584 727.908L431.394 753.142L447.225 780.317L451.183 797.787L453.162 803.61L449.204 807.492L439.31 791.964L435.352 782.258L431.394 770.612L423.479 758.965L419.521 747.319L403.69 722.085V718.202Z" fill="#BF3390"/>
<path d="M296.831 289.222L304.747 293.104L296.831 310.574H292.873L288.916 322.22L277.042 343.572L275.063 339.69L267.148 337.749L269.127 328.044L296.831 289.222Z" fill="#BD2B92"/>
<path d="M480.866 52.4093L484.823 54.3504L468.992 69.8791L449.204 102.878L437.33 126.171L443.267 122.288L439.309 130.053L423.478 151.405L419.521 153.346L423.478 143.64L439.309 106.76L451.182 85.4078L461.077 69.8791L480.866 52.4093Z" fill="#C6448A"/>
<path d="M393.796 328.044H395.775L397.753 382.394H401.711L403.69 403.746L405.669 423.157H401.711L393.796 394.041L389.838 370.748V335.808L393.796 328.044Z" fill="#C882BD"/>
<path d="M328.493 636.677H334.429L350.26 661.911L348.282 675.499H344.324L342.345 679.381L334.429 675.499L322.556 659.97L324.535 656.088L330.472 659.97L328.493 654.147L330.472 644.441L326.514 638.618L328.493 636.677Z" fill="#B82095"/>
<path d="M548.147 916.193L550.126 923.958L542.211 953.074L530.338 982.19H524.401V988.014L518.464 989.955L524.401 972.485L536.274 931.722L540.232 927.84H546.169L548.147 916.193Z" fill="#BC448D"/>
<path d="M524.401 460.038L534.296 469.743L558.042 502.742L575.852 526.035L591.683 549.328L605.535 568.739L609.493 580.385L603.556 574.562L579.81 541.563L554.084 506.624L532.317 475.566L524.401 463.92V460.038Z" fill="#C87FB3"/>
<path d="M255.275 407.628H259.233V428.98L255.275 487.213L253.296 496.918L249.338 493.036V448.391L255.275 407.628Z" fill="#C880B6"/>
<path d="M783.634 815.257L789.57 817.198L791.549 856.02L789.57 890.959L785.613 898.724L783.634 887.077V815.257Z" fill="#C87FB4"/>
<path d="M528.359 3.88208L532.317 11.6464L540.232 23.293L542.211 31.0573V56.2915L528.359 98.9954H526.38V85.4078L534.296 58.2325V31.0573L528.359 13.5875V3.88208Z" fill="#9613A6"/>
<path d="M516.486 27.175H520.444L516.486 36.8805L500.655 67.9379V71.8201L490.761 81.5255L486.803 87.3488H482.845L480.866 95.1131L476.909 93.172L480.866 85.4077L494.719 64.0557L502.634 48.527L506.592 36.8805L516.486 27.175Z" fill="#C77EB2"/>
<path d="M447.225 784.199L451.183 788.081L465.035 823.021L467.014 840.491L459.099 836.609L445.247 807.492L447.225 803.61H451.183L447.225 793.905V784.199Z" fill="#9F13A2"/>
<path d="M253.295 877.372L263.19 887.077L277.042 902.606L286.936 914.252L288.915 923.958L282.979 925.899L273.084 920.075L261.211 904.547L269.126 906.488L265.169 896.782L253.295 881.254V877.372Z" fill="#5E44E0"/>
<path d="M522.422 9.70544H524.401L522.422 25.2341L502.634 36.8807L484.824 52.4094L463.056 69.8792L443.267 100.937L441.289 97.0544L457.12 69.8792L490.76 38.8218L506.591 27.1752L518.465 23.2931L522.422 9.70544Z" fill="#A5149F"/>
<path d="M468.993 632.794L480.866 642.5L504.613 673.557L512.528 685.204L510.549 691.027L502.634 683.263L496.697 675.498V671.616H492.74L488.782 661.911H484.824L472.951 644.441L467.014 634.735L468.993 632.794Z" fill="#C779AD"/>
<path d="M459.099 1083.13L461.078 1087.01L465.035 1088.95L447.225 1108.36L439.31 1110.3L437.331 1106.42L419.521 1123.89L415.563 1120.01L441.289 1096.71L459.099 1083.13Z" fill="#C76394"/>
<path d="M73.2178 1009.37L85.091 1019.07L102.901 1040.42L108.837 1048.19V1052.07L100.922 1050.13L89.0488 1036.54L79.1544 1032.66L73.2178 1026.84L75.1966 1022.95V1019.07L73.2178 1009.37Z" fill="#5A64EC"/>
<path d="M358.176 491.095L366.092 500.801L383.902 527.976L397.754 545.446V551.269L395.775 555.151L375.986 529.917L358.176 500.801V491.095Z" fill="#C6408B"/>
<path d="M567.937 1224.83L575.852 1226.77L538.253 1246.18L500.655 1259.77L494.718 1257.82L524.401 1246.18L538.253 1238.41L540.232 1234.53L558.042 1228.71L567.937 1224.83Z" fill="#B889E1"/>
<path d="M389.838 568.739L399.732 572.621L403.69 580.385L409.627 582.326L425.458 603.678L439.31 619.207L441.289 625.03L433.373 623.089L397.753 580.385L389.838 568.739Z" fill="#A7199D"/>
<path d="M393.796 1135.54L399.733 1137.48L393.796 1143.3L397.754 1145.24L374.007 1160.77H364.113L366.092 1151.06L393.796 1135.54Z" fill="#C578B3"/>
<path d="M690.626 535.74L696.563 541.563L710.415 568.738L708.436 574.562L704.478 570.68L706.457 586.208H702.5L690.626 547.387L688.647 537.681L690.626 535.74Z" fill="#BE418E"/>
<path d="M314.641 854.079L328.493 865.725L348.281 889.018L368.07 918.134L366.091 922.017L352.239 906.488L346.303 900.665L330.472 875.431L314.641 857.961V854.079Z" fill="#9A12A4"/>
<path d="M393.796 180.521L397.754 182.462L393.796 190.227L377.965 203.814L364.113 217.402L350.261 232.931L326.514 258.165V252.341L354.218 223.225L368.071 207.696L393.796 180.521Z" fill="#A645AF"/>
<path d="M286.937 918.135L296.831 927.84L304.747 939.486L306.726 949.192L298.81 947.251L281 929.781L279.021 923.958L286.937 922.017V918.135Z" fill="#6234D5"/>
<path d="M241.422 1013.25L247.359 1015.19L255.274 1026.84L259.232 1042.36V1073.42L255.274 1079.24L253.296 1067.6V1044.31L243.401 1019.07L241.422 1013.25Z" fill="#7160E5"/>
<path d="M465.035 1265.59L472.951 1267.53L461.077 1273.35L445.246 1275.29L433.373 1279.18L411.605 1281.12L415.563 1275.29L465.035 1265.59Z" fill="#8256DA"/>
<path d="M500.655 48.5272L504.613 50.4683L490.76 73.7614L472.951 97.0544L470.972 93.1722L478.887 77.6435H482.845L486.803 64.0559L500.655 48.5272Z" fill="#C8728A"/>
<path d="M221.633 718.202H225.591L237.464 747.319L233.507 755.083L231.528 760.906L223.612 739.554L221.633 718.202Z" fill="#8C0EAC"/>
<path d="M660.943 650.264L666.88 658.029L680.732 692.968V696.85H676.774L656.985 658.029L660.943 650.264Z" fill="#B55FB3"/>
<path d="M530.338 21.3518L534.296 27.1751L536.274 31.0572V58.2325L530.338 77.6433H528.359L530.338 21.3518Z" fill="#C76FA7"/>
<path d="M403.69 718.202L413.584 727.908L431.394 753.142L439.31 768.671H433.373L405.669 724.026L403.69 718.202Z" fill="#9912A5"/>
<path d="M391.817 1088.95H395.774L397.753 1098.66L391.817 1104.48H387.859L391.817 1118.07V1133.59L397.753 1135.54L389.838 1137.48L385.88 1114.18L379.943 1098.66L381.922 1090.89L385.88 1096.71H391.817V1088.95Z" fill="#6A15BA"/>
<path d="M265.169 370.748L271.106 376.571L267.148 395.982L261.211 415.393L257.253 407.628L259.232 392.1L265.169 370.748Z" fill="#C75D8A"/>
<path d="M235.486 747.319L241.422 753.142L255.274 780.317L247.359 776.435L241.422 768.671L237.464 770.612L231.528 751.201L235.486 747.319Z" fill="#A216A0"/>
<path d="M168.204 619.207H170.183V669.675L164.246 677.439V632.794L168.204 619.207Z" fill="#6620C7"/>
<path d="M332.451 440.627L336.409 444.509L340.366 461.979L342.345 481.39L334.43 471.684L328.493 444.509H332.451V440.627Z" fill="#B42496"/>
<path d="M480.866 52.4093L484.824 54.3504L468.993 69.8791L457.12 89.29L447.226 95.1132L451.183 85.4078L461.078 69.8791L480.866 52.4093Z" fill="#C63F8B"/>
<path d="M645.112 1176.3L649.07 1178.24L641.154 1187.95L611.471 1207.36L601.577 1213.18L597.619 1211.24L627.302 1189.89L645.112 1176.3Z" fill="#9B10A5"/>
<path d="M583.768 1211.24L585.747 1217.06L589.705 1219L579.81 1224.83L562 1228.71L550.127 1234.53L544.19 1232.59L573.874 1217.06L583.768 1211.24Z" fill="#A41BA0"/>
<path d="M641.155 875.43H643.134V904.547L637.198 937.545H635.219L637.198 902.606L639.176 877.371L641.155 875.43Z" fill="#C74589"/>
<path d="M447.226 607.56L455.141 611.443L472.951 630.854L470.972 634.736L465.035 636.677L451.183 619.207L447.226 607.56Z" fill="#C7668C"/>
<path d="M148.416 871.548L162.268 883.195L170.183 892.9L187.993 906.488L199.866 916.193H193.93L166.225 894.841L152.373 881.254L148.416 871.548Z" fill="#C87FB3"/>
<path d="M75.1966 768.67L87.0699 772.553L93.0065 778.376V782.258L85.091 784.199V788.081L75.1966 784.199L73.2178 778.376H77.1755L75.1966 768.67Z" fill="#C75985"/>
<path d="M498.676 62.1147H502.634L500.655 71.8202L490.761 81.5256L486.803 87.3489H482.845L480.866 95.1132L476.909 93.1721L480.866 85.4078L494.719 65.9969L498.676 62.1147Z" fill="#C881B9"/>
<path d="M257.253 444.509H259.232L261.211 460.038L259.232 473.625L261.211 508.565H257.253L255.274 487.213V456.155L257.253 444.509Z" fill="#C7458A"/>
<path d="M536.275 56.2914H540.232L538.254 69.879L528.359 98.9953H526.38V85.4077L534.296 58.2325L536.275 56.2914Z" fill="#8F12A9"/>
<path d="M748.014 1032.66L749.993 1040.42L734.162 1071.48H730.204L736.141 1052.07L744.056 1038.48L748.014 1032.66Z" fill="#C76889"/>
<path d="M524.401 982.19L528.359 984.131L514.507 1011.31L508.57 1013.25L510.549 1003.54L516.486 989.954L524.401 988.013V982.19Z" fill="#BC69AF"/>
<path d="M437.331 1104.48L441.289 1108.36L437.331 1116.13L425.458 1125.83L417.542 1123.89L437.331 1104.48Z" fill="#C77090"/>
<path d="M548.148 916.193L550.127 923.958L544.19 943.369L540.233 945.31L536.275 943.369V931.722L540.233 927.84H546.169L548.148 916.193Z" fill="#C2458B"/>
<path d="M360.155 221.284L362.134 227.107L360.155 240.695L356.197 242.636L346.303 238.754L350.26 230.989L360.155 221.284Z" fill="#C75885"/>
<path d="M184.035 955.015L199.866 966.662L215.697 984.131H209.761L193.93 970.544L184.035 958.897V955.015Z" fill="#C74C8F"/>
<path d="M302.767 553.21L308.704 555.151L310.683 568.739L308.704 570.68L310.683 588.15L306.725 582.326L300.789 557.092L302.767 553.21Z" fill="#C14F8E"/>
<path d="M358.176 217.402H362.134L358.176 225.166L344.324 238.754L330.472 254.282L324.535 258.165L328.493 250.4L354.218 223.225L358.176 217.402Z" fill="#A93697"/>
<path d="M441.288 122.289V128.112L423.478 151.405L419.521 153.346L423.478 143.641L433.373 124.23H439.309L441.288 122.289Z" fill="#C74689"/>
<path d="M415.563 578.444L423.479 582.326L441.289 603.678L451.183 613.384L449.204 617.266L427.437 595.914L415.563 578.444Z" fill="#C53D8B"/>
<path d="M296.831 289.222L304.747 293.104L296.831 310.574L294.852 304.751H288.916L292.873 295.045L296.831 289.222Z" fill="#BE3E8E"/>
<path d="M83.1123 1034.6L91.0278 1036.54L116.753 1063.72H110.817L83.1123 1036.54V1034.6Z" fill="#6231D4"/>
<path d="M413.585 149.464H415.564L413.585 163.051L399.733 180.521L395.775 178.58L405.669 161.11L413.585 149.464Z" fill="#8B12AA"/>
<path d="M227.57 842.432L235.486 850.196L253.296 873.489L251.317 877.371L241.422 869.607L227.57 846.314V842.432Z" fill="#5C53E6"/>
<path d="M536.275 1226.77L540.232 1228.71L518.465 1240.35L500.655 1246.18L508.57 1238.41L536.275 1226.77Z" fill="#6044DC"/>
<path d="M281 593.973L288.915 595.914L300.788 619.207V623.089H296.83L281 593.973Z" fill="#C77098"/>
<path d="M465.035 1265.59L472.951 1267.53L461.077 1273.35L441.289 1275.29L443.267 1269.47L465.035 1265.59Z" fill="#956FE0"/>
<path d="M73.2178 749.26L85.091 753.142L89.0488 764.788L87.0699 770.612L79.1544 762.847L75.1966 753.142L73.2178 749.26Z" fill="#C75A85"/>
<path d="M526.38 968.603H530.338L532.316 978.308L530.338 982.19H524.401V988.013L518.464 989.955L524.401 972.485L526.38 968.603Z" fill="#BA4B8C"/>
<path d="M277.042 824.962L304.747 848.255L302.768 852.137L294.852 848.255L277.042 828.844V824.962Z" fill="#C686C8"/>
<path d="M441.289 1096.71L445.247 1098.66L419.521 1123.89L415.563 1120.01L441.289 1096.71Z" fill="#AA489A"/>
<path d="M271.106 326.103L279.021 333.867L277.042 343.573L275.063 339.69L267.148 337.749L269.127 328.044L271.106 326.103Z" fill="#B31D98"/>
<path d="M300.789 529.917H302.768L306.726 553.21H302.768L300.789 557.092L298.81 537.681L300.789 529.917Z" fill="#B43793"/>
<path d="M480.867 52.4093L484.824 54.3504L468.993 69.8791L457.12 77.6434L461.078 69.8791L480.867 52.4093Z" fill="#C6418A"/>
<path d="M308.704 991.896L322.557 1003.54L330.472 1011.31L328.493 1015.19L306.726 995.778L308.704 991.896Z" fill="#9817A5"/>
<path d="M251.316 780.317L259.232 784.199L275.063 805.551H269.126L253.295 784.199L251.316 780.317Z" fill="#9812A5"/>
<path d="M314.641 854.079L328.493 865.725L338.387 877.372H332.45L314.641 857.961V854.079Z" fill="#9614A6"/>
<path d="M391.817 277.576L397.754 279.517V296.986L393.796 302.81L391.817 277.576Z" fill="#C75B85"/>
</svg>
